<svg xmlns="http://www.w3.org/2000/svg" height="330" width="330" viewBox="0 0 330 330"><path d="M150 292.54v-240" stroke="#000" stroke-dasharray="4.5, 4.5" stroke-width="1.5" fill="none"/><g transform="matrix(.75 0 0 .75 0 -459.27)"><path d="M50 682.36v320h320" stroke="#000" stroke-width="4" fill="none"/><text font-size="40" y="1012.362" x="379.136" font-family="sans-serif" word-spacing="0" letter-spacing="0"><tspan font-size="30" y="1012.362" x="379.136">x</tspan></text><text font-size="40" y="665.362" x="41.136" font-family="sans-serif" word-spacing="0" letter-spacing="0"><tspan font-size="30" y="665.362" x="41.136">y</tspan></text><circle cy="765.36" cx="158" r="5" fill="#164bc5"/><g stroke="#000" stroke-width="2" fill="none"><path d="M150 1012.4v-10M250 1012.4v-10M350 1012.4v-10"/></g><g font-size="40" font-family="sans-serif" word-spacing="0" letter-spacing="0"><text y="1028.362" x="29"><tspan font-size="20" y="1028.362" x="29">0</tspan></text><text y="1034.362" x="143"><tspan font-size="20" y="1034.362" x="143">1</tspan></text><text y="1034.362" x="245"><tspan font-size="20" y="1034.362" x="245">2</tspan></text><text y="1034.079" x="343.477"><tspan font-size="20" y="1034.079" x="343.477">3</tspan></text></g><g stroke="#000" stroke-width="2" fill="none"><path d="M40 702.36h10M40 802.36h10M40 902.36h10"/></g><g font-size="40" font-family="sans-serif" word-spacing="0" letter-spacing="0"><text y="909.449" x="20.634"><tspan font-size="20" y="909.449" x="20.634">1</tspan></text><text y="808.025" x="20.946"><tspan font-size="20" y="808.025" x="20.946">2</tspan></text><text y="709.178" x="20.575"><tspan font-size="20" y="709.178" x="20.575">3</tspan></text></g><g fill="#164bc5"><circle cx="79" cy="852.36" r="5"/><circle cy="878.36" cx="121" r="5"/><circle cx="221" cy="955.36" r="5"/></g><g fill="#0f9640"><circle cy="830.36" cx="275" r="5"/><circle cx="299" cy="870.36" r="5"/><circle cx="337" cy="793.36" r="5"/><circle cy="700.36" cx="295" r="5"/><circle cx="340" cy="947.36" r="5"/></g><circle cy="970.36" cx="107" r="5" fill="#164bc5"/></g></svg>